<svg id="svg" version="1.1" xmlns="http://www.w3.org/2000/svg" xmlns:xlink="http://www.w3.org/1999/xlink" width="48" height="48" viewBox="0, 0, 400,400"><g id="svgg"><path id="path0" d="M161.400 21.985 C 160.960 22.166,159.790 22.552,158.800 22.842 C 146.161 26.546,142.021 36.269,145.618 53.800 C 145.843 54.900,146.134 56.745,146.264 57.900 L 146.499 60.000 141.812 60.000 C 139.235 60.000,134.957 59.794,132.307 59.542 C 128.546 59.185,126.599 59.197,123.444 59.593 C 116.930 60.411,116.230 61.018,115.585 66.410 C 114.850 72.541,115.119 72.057,112.520 71.920 C 110.412 71.808,110.214 71.709,109.493 70.416 C 108.291 68.258,107.750 68.027,103.868 68.013 C 98.563 67.994,93.184 67.370,86.600 66.011 C 70.452 62.678,64.807 68.004,64.801 86.577 C 64.801 88.545,64.630 92.595,64.422 95.577 C 64.215 98.560,63.853 106.130,63.620 112.400 C 63.386 118.670,63.018 128.570,62.802 134.400 C 61.674 164.879,61.457 202.827,62.211 237.800 C 63.369 291.542,63.085 287.473,65.742 288.434 L 67.084 288.919 67.354 293.559 C 67.503 296.112,67.802 301.890,68.018 306.400 C 69.026 327.366,69.217 330.973,69.602 336.400 C 70.085 343.198,70.623 351.270,71.189 360.200 C 71.854 370.693,72.204 371.744,75.643 373.569 L 77.470 374.539 87.635 374.063 C 93.226 373.801,101.580 373.407,106.200 373.187 C 117.197 372.665,155.065 372.678,164.000 373.208 C 175.718 373.902,193.721 375.391,203.000 376.433 C 212.617 377.512,235.004 377.384,242.600 376.206 C 247.802 375.399,249.557 374.995,250.903 374.297 C 251.774 373.844,252.698 373.632,253.103 373.791 C 253.770 374.055,254.872 374.278,260.200 375.229 C 272.805 377.480,285.077 377.133,292.800 374.309 C 309.049 368.366,321.638 354.124,332.758 329.104 C 333.221 328.062,333.600 327.115,333.600 327.000 C 333.600 326.885,333.947 326.028,334.371 325.096 C 335.869 321.803,337.744 315.622,338.769 310.600 C 338.994 309.500,339.362 307.755,339.589 306.723 C 340.420 302.927,340.085 293.416,338.963 289.000 C 337.115 281.726,337.348 282.384,334.078 275.200 C 333.514 273.960,331.906 271.331,328.921 266.766 C 328.405 265.978,327.672 264.988,327.292 264.566 C 326.911 264.145,325.790 262.810,324.801 261.600 C 318.749 254.200,307.562 245.753,297.200 240.760 C 294.890 239.647,292.477 238.481,291.839 238.168 C 290.104 237.320,289.021 237.472,287.642 238.760 C 284.957 241.269,286.232 243.330,292.231 246.173 C 311.701 255.402,327.998 272.553,331.215 287.200 C 331.384 287.970,331.825 289.680,332.195 291.000 C 332.954 293.706,333.142 304.251,332.472 306.515 C 332.263 307.222,331.872 308.880,331.602 310.200 C 331.062 312.849,329.777 317.353,329.206 318.600 C 329.005 319.040,328.556 320.275,328.210 321.345 C 327.048 324.926,321.769 335.919,319.076 340.362 C 317.311 343.276,312.803 350.085,312.431 350.400 C 312.302 350.510,311.693 351.274,311.079 352.097 C 306.691 357.986,296.246 365.830,290.900 367.254 C 290.185 367.444,288.925 367.782,288.100 368.004 C 280.255 370.115,271.207 370.130,258.800 368.053 C 255.782 367.548,249.428 365.847,245.044 364.371 C 241.262 363.097,240.599 362.830,236.600 360.970 C 233.753 359.646,231.242 359.476,230.078 360.529 C 229.314 361.221,229.204 361.223,227.936 360.580 C 225.587 359.387,219.480 355.134,216.956 352.932 L 214.511 350.800 210.156 350.797 C 205.328 350.794,196.325 350.139,177.000 348.383 C 161.152 346.943,131.498 346.563,112.000 347.549 C 87.239 348.803,86.984 348.661,85.990 333.054 C 85.779 329.724,85.423 324.300,85.200 321.000 C 84.286 307.448,83.098 283.157,82.305 261.800 C 81.623 243.421,81.627 166.063,82.311 148.000 C 83.592 114.213,84.300 102.698,85.254 100.146 C 87.129 95.135,91.009 94.237,101.200 96.454 C 108.768 98.100,163.761 97.271,210.200 94.811 C 229.808 93.772,228.820 93.767,231.307 94.906 C 233.761 96.030,235.693 98.247,236.401 100.755 C 236.887 102.474,237.756 144.260,238.434 198.400 C 238.699 219.630,238.947 237.042,238.985 237.093 C 239.022 237.144,239.671 237.006,240.426 236.785 C 242.665 236.131,247.326 235.201,248.367 235.200 C 248.899 235.200,250.500 234.997,251.924 234.749 L 254.514 234.298 254.252 207.449 C 253.382 118.570,252.346 73.324,251.123 70.860 C 249.160 66.904,248.421 66.812,228.000 67.993 C 211.128 68.969,203.043 69.192,202.725 68.692 C 202.553 68.421,202.409 67.120,202.405 65.800 C 202.388 60.423,201.328 60.000,187.859 60.000 L 178.011 60.000 177.337 58.500 C 175.526 54.466,176.471 47.400,179.629 41.358 C 182.826 35.241,182.157 32.129,176.406 26.362 C 172.388 22.333,165.454 20.310,161.400 21.985 M164.306 30.970 C 171.491 32.883,174.917 38.345,172.213 43.575 C 170.049 47.759,160.603 47.590,155.565 43.277 C 148.755 37.448,155.097 28.519,164.306 30.970 M106.000 119.872 C 103.842 120.679,103.358 123.789,105.155 125.301 L 106.310 126.272 124.655 126.549 C 144.145 126.843,169.903 127.302,204.733 127.979 C 220.778 128.290,226.281 128.278,226.933 127.931 C 228.999 126.831,229.380 124.718,227.835 122.922 C 226.694 121.596,230.697 121.797,193.800 121.215 C 179.280 120.985,158.850 120.620,148.400 120.402 C 118.308 119.776,106.646 119.630,106.000 119.872 M115.870 158.865 C 107.308 159.305,105.116 160.353,106.228 163.475 C 107.061 165.811,107.684 165.924,117.600 165.539 C 127.018 165.174,145.506 165.588,160.400 166.499 C 169.742 167.070,208.456 167.184,215.683 166.662 C 222.063 166.201,224.512 163.724,221.441 160.839 L 220.483 159.938 199.039 160.362 C 184.702 160.646,175.441 160.655,171.097 160.391 C 156.010 159.475,150.390 159.193,139.400 158.803 C 126.742 158.353,125.773 158.356,115.870 158.865 M106.000 195.083 C 103.338 196.064,103.285 199.614,105.912 200.942 C 108.797 202.401,161.404 203.237,194.800 202.354 C 219.746 201.695,222.152 201.544,223.473 200.560 C 225.183 199.287,225.232 197.234,223.586 195.850 L 222.330 194.793 216.065 195.016 C 212.619 195.139,206.350 195.411,202.134 195.620 C 192.235 196.111,137.826 196.113,127.182 195.624 C 114.530 195.041,106.659 194.841,106.000 195.083 M195.000 233.259 C 185.980 233.435,162.677 233.793,143.216 234.055 L 107.833 234.531 106.916 235.447 C 105.752 236.611,105.736 238.356,106.875 239.804 L 107.749 240.916 130.375 240.648 C 142.819 240.501,167.760 240.227,185.800 240.040 C 219.544 239.689,220.320 239.645,221.176 238.045 C 222.932 234.764,220.660 232.773,215.269 232.869 C 213.141 232.908,204.020 233.083,195.000 233.259 M175.600 272.665 C 168.230 272.707,149.371 272.963,133.691 273.234 L 105.182 273.727 104.191 274.718 C 102.961 275.948,102.917 277.532,104.073 279.002 L 104.945 280.111 128.373 279.857 C 141.258 279.718,162.273 279.487,175.073 279.345 L 198.346 279.087 199.773 276.122 C 200.558 274.492,201.200 272.987,201.200 272.779 C 201.200 272.553,198.739 272.438,195.100 272.494 C 191.745 272.546,182.970 272.623,175.600 272.665 M112.234 312.130 C 109.830 314.533,111.112 317.230,114.854 317.642 C 118.922 318.090,187.449 318.882,191.200 318.524 L 194.600 318.200 194.484 317.000 C 194.420 316.340,194.168 314.969,193.922 313.953 L 193.476 312.106 164.438 311.854 C 148.467 311.715,130.420 311.488,124.334 311.349 L 113.267 311.096 112.234 312.130 " stroke="none" fill="#394ea6" fill-rule="evenodd"></path><path id="path1" d="M269.600 117.351 C 269.600 210.745,269.702 234.786,270.100 235.115 C 270.375 235.342,271.320 235.643,272.200 235.782 C 273.080 235.921,274.430 236.196,275.200 236.392 C 280.651 237.781,282.061 238.174,284.104 238.874 L 286.407 239.665 287.634 238.632 C 288.309 238.065,289.303 237.600,289.843 237.600 C 291.046 237.600,301.267 242.525,304.713 244.766 C 306.096 245.665,307.320 246.400,307.434 246.400 C 307.913 246.400,316.520 253.228,319.393 255.888 C 325.028 261.104,331.994 270.428,334.717 276.400 C 337.173 281.787,337.417 282.518,339.454 290.600 C 341.500 298.718,338.854 315.589,333.802 326.632 C 333.251 327.838,332.800 328.904,332.800 329.002 C 332.800 329.955,327.055 341.274,324.265 345.818 C 317.746 356.437,309.467 365.432,302.046 369.961 C 293.916 374.922,286.698 376.780,275.500 376.793 L 269.600 376.800 269.600 388.400 L 269.600 400.000 334.800 400.000 L 400.000 400.000 400.000 200.000 L 400.000 0.000 334.800 0.000 L 269.600 0.000 269.600 117.351 " stroke="none" fill="#6cebfb" fill-rule="evenodd"></path><path id="path2" d="M0.000 200.000 L 0.000 400.000 125.200 400.000 L 250.400 400.000 250.400 387.862 C 250.400 372.466,249.501 373.511,260.600 376.000 C 261.480 376.198,263.460 376.451,265.000 376.563 L 267.800 376.768 265.400 376.401 C 263.024 376.039,261.759 375.808,255.251 374.553 C 251.969 373.921,251.867 373.925,250.184 374.765 C 245.411 377.149,220.679 378.285,205.400 376.823 C 185.697 374.937,176.181 374.161,164.800 373.513 C 153.152 372.849,119.754 372.867,104.000 373.545 C 82.150 374.486,76.853 374.561,75.671 373.949 C 72.377 372.242,71.622 370.410,71.161 363.000 C 70.830 357.679,70.452 352.006,69.588 339.400 C 68.897 329.325,67.807 308.267,67.339 295.960 L 67.087 289.320 65.801 288.855 C 63.176 287.905,63.106 287.664,62.764 278.299 C 60.783 224.156,61.111 156.383,63.610 103.600 C 64.914 76.050,65.091 74.379,67.088 70.709 C 70.241 64.916,75.886 63.556,87.423 65.812 C 92.679 66.840,99.683 67.577,104.400 67.600 C 107.451 67.614,108.747 68.165,109.588 69.806 C 110.928 72.421,114.532 72.417,114.708 69.800 C 114.916 66.697,115.618 62.760,116.106 61.952 C 117.608 59.464,123.714 58.457,133.132 59.145 C 136.579 59.396,140.885 59.602,142.700 59.601 C 146.594 59.600,146.435 59.971,145.177 53.800 C 141.446 35.505,145.774 26.121,159.800 22.087 C 167.442 19.889,171.298 20.898,177.025 26.593 C 182.672 32.208,183.157 34.753,179.926 41.816 C 178.923 44.007,177.856 46.430,177.554 47.200 C 176.838 49.026,176.837 55.240,177.553 57.703 L 178.106 59.606 188.153 59.534 C 201.226 59.440,202.791 60.030,202.805 65.062 C 202.818 69.607,201.357 69.477,231.000 67.577 C 249.736 66.377,251.394 66.957,252.189 75.000 C 252.654 79.700,253.867 152.423,254.323 202.882 C 254.501 222.636,254.748 234.098,255.002 234.333 C 255.469 234.768,267.530 235.397,267.097 234.964 C 266.936 234.803,264.238 234.565,261.102 234.435 L 255.400 234.200 254.944 195.800 C 254.367 147.195,253.690 105.926,253.164 87.240 L 252.753 72.680 251.577 70.084 L 250.400 67.489 250.400 33.745 L 250.400 0.000 125.200 0.000 L 0.000 0.000 0.000 200.000 M160.500 31.076 C 160.885 31.176,161.515 31.176,161.900 31.076 C 162.285 30.975,161.970 30.893,161.200 30.893 C 160.430 30.893,160.115 30.975,160.500 31.076 M164.000 31.592 C 164.770 31.757,165.760 32.019,166.200 32.174 C 166.724 32.358,166.655 32.244,166.000 31.842 C 165.450 31.504,164.460 31.243,163.800 31.260 C 162.621 31.291,162.624 31.297,164.000 31.592 M154.975 33.300 L 153.800 34.600 155.198 33.400 C 155.967 32.740,156.672 32.155,156.765 32.100 C 156.857 32.045,156.757 32.000,156.542 32.000 C 156.326 32.000,155.621 32.585,154.975 33.300 M167.996 33.083 C 168.544 33.477,169.714 34.422,170.596 35.183 L 172.200 36.566 170.912 35.177 C 170.204 34.412,169.034 33.467,168.312 33.076 C 167.046 32.390,167.035 32.391,167.996 33.083 M172.395 39.518 L 172.590 42.200 172.717 39.842 C 172.786 38.545,172.699 37.338,172.522 37.160 C 172.345 36.982,172.288 38.043,172.395 39.518 M155.287 42.605 C 156.104 43.460,156.838 44.079,156.917 43.980 C 156.997 43.881,156.328 43.181,155.431 42.425 L 153.800 41.050 155.287 42.605 M160.800 45.600 C 162.168 46.038,163.219 46.038,162.200 45.600 C 161.760 45.411,161.040 45.262,160.600 45.268 C 159.957 45.277,159.996 45.343,160.800 45.600 M165.800 46.000 L 163.000 46.259 165.600 46.323 C 167.030 46.359,168.470 46.213,168.800 46.000 C 169.130 45.787,169.220 45.641,169.000 45.677 C 168.780 45.712,167.340 45.858,165.800 46.000 M220.800 94.453 C 217.390 94.596,210.820 94.923,206.200 95.180 C 191.586 95.992,180.766 96.371,160.400 96.782 C 149.510 97.002,140.185 97.282,139.678 97.404 C 137.485 97.933,107.016 97.632,103.800 97.050 C 84.622 93.580,84.936 93.208,83.611 121.000 C 82.407 146.253,81.595 179.617,81.605 203.400 C 81.614 223.907,82.432 263.222,83.199 280.000 C 83.415 284.730,83.770 292.470,83.987 297.200 C 84.204 301.930,84.566 308.590,84.792 312.000 C 85.452 321.973,86.019 330.635,86.363 336.000 C 86.804 342.884,87.974 345.329,91.759 347.275 C 93.511 348.176,93.815 348.175,120.200 347.199 C 134.235 346.681,163.926 346.901,170.000 347.569 C 171.870 347.774,175.830 348.142,178.800 348.386 C 181.770 348.629,186.000 348.999,188.200 349.206 C 201.668 350.475,213.169 350.954,213.858 350.272 C 214.040 350.092,213.359 349.192,212.345 348.272 C 206.244 342.738,199.478 331.856,196.376 322.591 C 194.879 318.118,195.152 318.377,192.391 318.805 L 190.200 319.144 192.355 319.072 C 194.740 318.992,194.796 319.043,195.631 322.000 C 195.910 322.990,196.288 323.971,196.470 324.180 C 196.651 324.389,196.800 324.819,196.800 325.136 C 196.800 327.852,205.480 341.783,210.398 346.961 L 213.400 350.122 206.600 349.867 C 200.191 349.626,194.142 349.166,179.600 347.812 C 158.448 345.842,138.199 345.673,102.400 347.168 C 88.865 347.733,87.662 346.656,86.803 333.200 C 86.571 329.570,86.210 324.080,86.002 321.000 C 83.250 280.420,82.209 242.534,82.518 194.200 C 82.764 155.555,83.046 145.220,84.798 110.400 C 85.502 96.420,87.629 94.368,98.907 96.795 C 106.632 98.457,116.104 98.734,140.400 98.009 C 147.770 97.789,161.360 97.416,170.600 97.180 C 179.840 96.943,192.440 96.495,198.600 96.183 C 227.763 94.707,228.134 94.695,230.000 95.196 C 232.224 95.792,234.826 98.362,235.487 100.614 C 236.196 103.033,236.974 141.017,237.839 215.420 L 238.095 237.441 236.348 237.991 C 229.945 240.009,220.579 245.918,216.062 250.789 C 212.477 254.654,205.588 264.320,202.940 269.200 L 201.746 271.400 196.973 271.620 L 192.200 271.839 197.066 271.920 L 201.931 272.000 203.432 269.300 C 212.216 253.502,223.221 242.995,235.200 238.974 C 236.410 238.567,237.653 238.047,237.961 237.818 C 238.745 237.235,238.061 159.068,236.870 113.000 C 236.397 94.729,235.619 93.831,220.800 94.453 M105.352 119.564 C 103.791 120.516,103.117 122.287,103.634 124.082 C 104.399 126.737,104.420 126.741,119.450 126.949 L 133.000 127.136 119.400 126.741 C 104.418 126.305,104.385 126.299,103.873 123.668 C 103.294 120.687,104.887 119.522,110.000 119.190 L 113.800 118.943 110.200 118.873 C 107.281 118.816,106.364 118.947,105.352 119.564 M123.000 119.613 C 131.167 119.917,153.042 120.094,152.767 119.855 C 152.675 119.775,144.230 119.625,134.000 119.521 C 123.637 119.415,118.766 119.456,123.000 119.613 M162.800 120.423 C 171.173 120.713,200.243 120.895,199.967 120.655 C 199.875 120.576,189.720 120.430,177.400 120.332 C 165.080 120.234,158.510 120.275,162.800 120.423 M202.833 120.949 C 202.925 121.031,208.400 121.188,215.000 121.297 C 222.667 121.424,224.906 121.388,221.200 121.198 C 214.907 120.875,202.564 120.708,202.833 120.949 M227.900 122.426 C 229.678 124.452,228.743 128.029,226.289 128.595 C 225.800 128.708,223.780 128.853,221.800 128.918 L 218.200 129.035 222.120 129.118 C 227.666 129.234,229.200 128.319,229.200 124.896 C 229.200 123.700,228.945 123.115,228.100 122.370 L 227.000 121.400 227.900 122.426 M135.233 127.344 C 135.325 127.424,144.850 127.571,156.400 127.671 C 167.950 127.772,174.070 127.730,170.000 127.578 C 162.121 127.284,134.953 127.102,135.233 127.344 M179.633 128.145 C 179.725 128.225,187.990 128.375,198.000 128.479 C 208.211 128.585,212.864 128.544,208.600 128.386 C 200.408 128.082,179.360 127.907,179.633 128.145 M121.100 158.299 C 124.895 158.365,131.105 158.365,134.900 158.299 C 138.695 158.234,135.590 158.180,128.000 158.180 C 120.410 158.180,117.305 158.234,121.100 158.299 M109.200 158.800 C 107.201 159.221,109.252 159.238,111.600 158.820 C 113.224 158.532,113.263 158.500,112.000 158.503 C 111.230 158.504,109.970 158.638,109.200 158.800 M145.600 158.822 C 149.117 159.131,159.861 159.311,159.567 159.056 C 159.475 158.976,155.530 158.824,150.800 158.717 C 145.702 158.602,143.584 158.645,145.600 158.822 M162.600 159.623 C 165.079 159.923,174.662 160.112,174.367 159.855 C 174.275 159.775,171.050 159.625,167.200 159.521 C 163.350 159.417,161.280 159.463,162.600 159.623 M202.200 159.620 L 188.600 159.856 204.658 159.828 C 222.409 159.797,222.016 159.741,222.594 162.372 C 223.155 164.927,221.703 166.333,218.010 166.810 L 215.800 167.095 217.600 167.147 C 222.439 167.286,224.867 163.011,221.540 160.211 C 220.523 159.355,219.990 159.214,218.069 159.292 C 216.821 159.343,209.680 159.490,202.200 159.620 M177.500 160.296 C 178.875 160.374,181.125 160.374,182.500 160.296 C 183.875 160.218,182.750 160.154,180.000 160.154 C 177.250 160.154,176.125 160.218,177.500 160.296 M105.600 163.929 C 105.600 164.587,107.413 166.400,108.071 166.400 C 108.350 166.400,108.184 166.124,107.702 165.787 C 107.221 165.449,106.551 164.779,106.213 164.298 C 105.876 163.816,105.600 163.650,105.600 163.929 M111.733 165.961 C 110.376 166.092,109.129 166.337,108.962 166.504 C 108.795 166.671,109.275 166.671,110.029 166.504 C 110.783 166.337,119.500 166.200,129.400 166.200 C 139.300 166.200,146.050 166.089,144.400 165.952 C 140.583 165.637,115.006 165.644,111.733 165.961 M148.833 166.545 C 148.925 166.624,152.420 166.775,156.600 166.879 C 160.780 166.984,163.120 166.938,161.800 166.778 C 159.336 166.479,148.534 166.285,148.833 166.545 M173.800 167.592 C 178.860 167.706,190.290 167.702,199.200 167.582 C 213.253 167.392,212.033 167.365,190.000 167.373 C 176.030 167.379,168.740 167.477,173.800 167.592 M105.344 194.769 C 102.967 196.218,102.673 199.016,104.705 200.831 C 105.885 201.886,113.768 202.950,115.663 202.310 C 115.958 202.210,113.950 202.002,111.200 201.848 C 105.757 201.541,104.488 201.062,103.968 199.118 C 103.249 196.427,104.700 194.785,108.176 194.360 L 110.200 194.113 108.400 194.058 C 107.249 194.023,106.147 194.279,105.344 194.769 M220.600 194.392 C 223.318 194.771,223.841 195.056,224.536 196.531 C 226.210 200.082,224.342 201.434,217.181 201.855 C 214.222 202.029,212.250 202.241,212.800 202.327 C 215.746 202.786,222.835 201.919,223.974 200.961 C 227.111 198.321,224.777 193.910,220.320 194.056 L 218.600 194.113 220.600 194.392 M114.000 194.832 C 117.521 195.131,131.061 195.311,130.767 195.055 C 130.675 194.975,126.100 194.827,120.600 194.726 C 115.100 194.625,112.130 194.673,114.000 194.832 M205.400 194.800 L 199.000 195.031 204.800 195.073 C 207.990 195.096,212.220 194.983,214.200 194.821 L 217.800 194.527 214.800 194.548 C 213.150 194.560,208.920 194.673,205.400 194.800 M143.000 195.647 C 156.929 195.966,180.548 195.967,190.000 195.649 C 194.070 195.512,182.730 195.400,164.800 195.400 C 145.115 195.400,136.479 195.498,143.000 195.647 M116.833 202.546 C 116.925 202.627,122.670 202.781,129.600 202.889 C 137.295 203.009,139.942 202.971,136.400 202.793 C 130.146 202.478,116.560 202.307,116.833 202.546 M191.200 202.800 L 184.600 203.030 190.200 203.062 C 193.280 203.079,199.310 202.970,203.600 202.820 L 211.400 202.546 204.600 202.558 C 200.860 202.565,194.830 202.673,191.200 202.800 M153.072 203.500 C 158.392 203.563,167.212 203.563,172.672 203.500 C 178.133 203.437,173.780 203.385,163.000 203.385 C 152.220 203.385,147.753 203.437,153.072 203.500 M202.100 232.699 C 205.345 232.766,210.655 232.766,213.900 232.699 C 217.145 232.632,214.490 232.577,208.000 232.577 C 201.510 232.577,198.855 232.632,202.100 232.699 M154.600 233.200 L 134.200 233.411 153.600 233.449 C 164.270 233.470,177.590 233.366,183.200 233.219 L 193.400 232.951 184.200 232.970 C 179.140 232.981,165.820 233.084,154.600 233.200 M220.804 233.724 C 222.227 235.355,222.111 237.813,220.549 239.114 C 219.836 239.708,219.716 239.914,220.233 239.657 C 222.517 238.523,222.911 235.481,221.004 233.702 L 219.823 232.600 220.804 233.724 M108.200 233.889 C 107.163 234.144,106.457 234.732,105.943 235.767 C 105.705 236.246,105.953 236.089,106.526 235.400 L 107.523 234.200 119.062 233.983 L 130.600 233.765 119.800 233.729 C 113.860 233.709,108.640 233.781,108.200 233.889 M268.600 235.200 C 267.415 235.502,267.418 235.506,268.924 235.553 C 269.848 235.581,270.350 235.443,270.200 235.200 C 270.064 234.980,269.918 234.821,269.876 234.847 C 269.834 234.873,269.260 235.032,268.600 235.200 M105.241 237.538 C 105.184 238.850,106.358 240.686,107.577 241.191 C 108.296 241.488,116.070 241.503,133.601 241.239 L 158.600 240.863 133.325 241.033 L 108.050 241.204 106.993 240.296 C 106.413 239.796,105.790 238.760,105.610 237.994 C 105.370 236.976,105.271 236.853,105.241 237.538 M175.000 240.420 C 167.740 240.550,174.670 240.577,190.400 240.480 C 206.130 240.383,219.075 240.235,219.167 240.152 C 219.386 239.952,191.741 240.120,175.000 240.420 M295.978 270.751 C 292.582 272.949,268.081 298.545,250.845 317.900 C 249.033 319.935,247.476 321.600,247.386 321.600 C 246.489 321.600,240.801 311.431,237.207 303.400 C 235.517 299.624,233.336 297.557,231.120 297.631 C 230.460 297.653,230.632 297.794,231.726 298.131 C 234.531 298.994,234.784 299.392,241.314 313.230 C 242.262 315.239,246.609 321.583,247.200 321.820 C 247.584 321.973,248.304 321.491,249.200 320.481 C 249.970 319.613,251.931 317.394,253.557 315.551 C 255.183 313.708,257.613 311.030,258.957 309.599 C 260.301 308.169,262.287 306.009,263.371 304.799 C 277.171 289.398,296.166 270.571,298.215 270.261 C 301.365 269.786,304.130 271.363,305.119 274.200 C 305.445 275.136,305.544 275.215,305.568 274.559 C 305.714 270.690,299.739 268.317,295.978 270.751 M143.800 272.400 L 126.200 272.613 142.400 272.651 C 151.310 272.673,165.170 272.569,173.200 272.422 L 187.800 272.153 174.600 272.170 C 167.340 272.180,153.480 272.283,143.800 272.400 M105.672 273.140 C 104.789 273.387,119.056 273.315,122.000 273.057 C 122.770 272.990,119.620 272.922,115.000 272.907 C 110.380 272.892,106.182 272.997,105.672 273.140 M103.369 274.591 C 102.271 276.267,102.523 278.397,103.973 279.692 L 105.226 280.812 132.113 280.550 C 146.901 280.407,159.090 280.199,159.200 280.089 C 159.310 279.979,147.230 280.005,132.356 280.146 C 105.392 280.403,105.309 280.401,104.256 279.573 C 103.009 278.592,102.786 275.969,103.823 274.489 C 104.165 274.000,104.349 273.600,104.232 273.600 C 104.114 273.600,103.726 274.046,103.369 274.591 M304.600 278.883 C 304.160 279.720,299.744 284.498,294.786 289.502 C 283.542 300.851,270.443 314.795,262.190 324.200 C 260.453 326.180,258.934 327.890,258.816 328.000 C 258.697 328.110,257.250 329.730,255.600 331.600 C 250.111 337.821,247.099 339.086,243.326 336.754 C 239.593 334.447,227.134 313.896,224.608 305.879 C 224.274 304.818,224.065 304.519,224.040 305.067 C 223.881 308.536,236.729 331.035,241.715 336.021 C 243.756 338.062,245.841 338.715,248.254 338.070 C 251.030 337.328,251.586 336.820,260.137 327.221 C 272.578 313.255,280.107 305.190,292.454 292.600 C 303.901 280.928,305.766 278.828,305.529 277.879 C 305.458 277.594,305.040 278.046,304.600 278.883 M175.600 279.630 C 163.629 279.857,163.985 279.868,180.100 279.776 C 189.725 279.720,197.600 279.781,197.600 279.911 C 197.600 280.041,197.223 281.207,196.763 282.503 C 196.303 283.799,196.010 284.943,196.112 285.045 C 196.372 285.306,198.354 279.867,198.133 279.500 C 198.034 279.335,195.848 279.241,193.276 279.292 C 190.704 279.342,182.750 279.494,175.600 279.630 M195.473 286.153 C 195.323 286.545,195.211 287.166,195.225 287.533 C 195.242 287.975,195.381 287.874,195.637 287.234 C 195.849 286.703,195.961 286.082,195.885 285.854 C 195.809 285.627,195.624 285.761,195.473 286.153 M194.581 289.453 C 194.439 290.084,194.161 291.230,193.963 292.000 C 193.766 292.770,193.620 293.850,193.638 294.400 C 193.669 295.318,193.697 295.302,193.978 294.200 C 194.925 290.488,195.261 288.728,195.062 288.529 C 194.940 288.406,194.723 288.822,194.581 289.453 M192.997 298.100 C 192.850 299.475,192.790 302.903,192.865 305.718 L 193.000 310.836 192.000 311.118 C 191.450 311.273,181.010 311.379,168.800 311.353 L 146.600 311.305 160.600 311.669 C 174.904 312.040,191.723 311.928,192.800 311.455 C 193.302 311.234,193.836 295.600,193.342 295.600 C 193.299 295.600,193.143 296.725,192.997 298.100 M226.896 298.398 C 225.416 299.300,223.984 301.409,224.042 302.600 C 224.068 303.124,224.229 302.938,224.510 302.062 C 224.745 301.326,225.429 300.232,226.031 299.631 C 226.632 299.029,227.726 298.345,228.462 298.110 C 229.338 297.829,229.524 297.668,229.000 297.642 C 228.560 297.621,227.613 297.961,226.896 298.398 M113.284 310.841 C 112.908 310.974,119.710 311.083,128.400 311.084 C 137.090 311.085,143.480 311.025,142.600 310.952 C 139.540 310.698,113.963 310.602,113.284 310.841 M111.467 311.926 C 110.647 312.832,110.203 314.920,110.658 315.732 C 110.889 316.145,111.000 315.781,111.000 314.614 C 111.000 313.474,111.260 312.597,111.762 312.042 C 112.181 311.579,112.434 311.200,112.324 311.200 C 112.214 311.200,111.828 311.527,111.467 311.926 M112.624 318.038 C 112.747 318.237,113.587 318.400,114.490 318.400 C 116.521 318.400,116.352 318.181,114.100 317.893 C 113.130 317.769,112.496 317.832,112.624 318.038 M118.433 318.548 C 118.525 318.629,129.310 318.782,142.400 318.888 C 156.823 319.005,161.787 318.968,155.000 318.795 C 142.670 318.480,118.170 318.314,118.433 318.548 M174.500 319.499 C 177.305 319.568,181.895 319.568,184.700 319.499 C 187.505 319.430,185.210 319.374,179.600 319.374 C 173.990 319.374,171.695 319.430,174.500 319.499 " stroke="none" fill="#c3c3e3" fill-rule="evenodd"></path><path id="path3" d="M250.400 33.745 L 250.400 67.489 251.577 70.084 L 252.753 72.680 253.164 87.240 C 253.690 105.926,254.367 147.195,254.944 195.800 L 255.400 234.200 260.600 234.446 C 263.460 234.582,266.655 234.831,267.700 235.001 L 269.600 235.309 269.600 117.654 L 269.600 0.000 260.000 0.000 L 250.400 0.000 250.400 33.745 M159.400 31.373 C 159.180 31.459,158.519 31.636,157.931 31.765 C 155.634 32.270,153.200 35.374,153.200 37.800 C 153.200 44.668,168.276 49.244,171.649 43.400 C 174.618 38.256,169.776 32.029,162.336 31.423 C 160.941 31.309,159.620 31.287,159.400 31.373 M216.800 95.233 C 195.878 96.359,185.039 96.815,170.400 97.187 C 161.270 97.419,147.770 97.789,140.400 98.009 C 116.101 98.734,106.631 98.457,98.907 96.795 C 87.629 94.368,85.502 96.420,84.798 110.400 C 83.046 145.220,82.764 155.555,82.518 194.200 C 82.209 242.534,83.250 280.420,86.002 321.000 C 86.210 324.080,86.571 329.570,86.803 333.200 C 87.662 346.656,88.865 347.733,102.400 347.168 C 138.199 345.673,158.448 345.842,179.600 347.812 C 194.142 349.166,200.191 349.626,206.600 349.867 L 213.400 350.122 210.398 346.961 C 205.480 341.783,196.800 327.852,196.800 325.136 C 196.800 324.819,196.651 324.389,196.470 324.180 C 196.288 323.971,195.910 322.990,195.631 322.000 C 194.776 318.972,194.782 318.977,192.156 319.200 C 183.959 319.896,113.615 318.691,112.305 317.832 C 110.016 316.332,109.928 313.087,112.132 311.441 C 113.434 310.469,111.779 310.476,156.800 311.257 C 180.832 311.674,190.942 311.610,192.400 311.031 C 192.901 310.832,192.977 309.922,192.858 305.496 C 192.645 297.512,193.453 292.605,196.487 283.464 C 197.133 281.519,197.596 279.863,197.517 279.784 C 197.438 279.705,186.039 279.800,172.187 279.995 C 158.334 280.191,137.616 280.468,126.148 280.612 L 105.295 280.874 104.008 279.723 C 101.682 277.645,102.514 274.025,105.499 273.233 C 106.390 272.997,123.498 272.652,147.600 272.385 C 169.930 272.138,191.248 271.815,194.973 271.668 L 201.745 271.400 202.940 269.200 C 205.589 264.318,212.478 254.654,216.062 250.789 C 220.579 245.918,229.945 240.009,236.348 237.991 L 238.095 237.441 237.839 215.420 C 237.370 175.040,236.801 137.985,236.374 120.000 C 235.745 93.496,236.290 94.185,216.800 95.233 M140.200 119.621 C 151.420 119.837,171.670 120.182,185.200 120.388 C 230.486 121.079,229.200 120.948,229.200 124.862 C 229.200 129.285,229.048 129.316,210.083 128.833 C 201.347 128.610,183.850 128.238,171.200 128.007 C 98.019 126.669,104.487 127.044,103.634 124.082 C 102.426 119.889,104.697 118.680,113.200 118.989 C 116.830 119.121,128.980 119.405,140.200 119.621 M153.800 158.763 C 157.760 158.961,164.960 159.321,169.800 159.562 C 175.894 159.866,184.995 159.888,199.400 159.635 C 222.438 159.229,221.448 159.138,222.744 161.783 C 224.153 164.657,222.020 166.733,217.143 167.237 C 212.194 167.748,170.046 167.754,161.755 167.244 C 140.994 165.969,119.957 165.601,112.200 166.377 C 103.268 167.271,102.485 159.497,111.400 158.437 C 115.040 158.004,142.933 158.219,153.800 158.763 M123.800 194.797 C 156.860 195.840,192.823 195.674,215.097 194.378 C 222.944 193.921,223.791 194.109,224.958 196.567 C 226.379 199.562,224.617 201.630,220.283 202.055 C 202.937 203.755,125.277 203.760,108.493 202.062 C 104.870 201.695,103.491 200.599,103.491 198.086 C 103.491 195.037,105.311 193.836,109.400 194.189 C 110.940 194.322,117.420 194.595,123.800 194.797 M220.726 233.399 C 222.826 235.166,222.727 237.936,220.511 239.434 C 219.306 240.249,218.717 240.275,195.338 240.536 C 182.172 240.683,157.297 240.997,140.059 241.233 C 105.952 241.701,107.042 241.758,105.789 239.431 C 104.952 237.876,105.184 236.528,106.568 234.919 L 107.530 233.800 132.065 233.495 C 145.559 233.328,165.600 233.044,176.600 232.864 C 187.600 232.684,201.761 232.507,208.069 232.469 L 219.539 232.400 220.726 233.399 M297.800 270.292 C 296.200 270.522,275.450 291.318,263.371 304.799 C 262.287 306.009,260.301 308.169,258.957 309.599 C 257.613 311.030,255.183 313.708,253.557 315.551 C 251.931 317.394,249.970 319.613,249.200 320.481 C 248.304 321.491,247.584 321.973,247.200 321.820 C 246.609 321.583,242.262 315.239,241.314 313.230 C 234.772 299.365,234.412 298.805,231.583 298.087 C 227.068 296.941,223.219 301.146,224.596 305.720 C 226.971 313.613,239.517 334.400,243.326 336.754 C 247.099 339.086,250.111 337.821,255.600 331.600 C 257.250 329.730,258.697 328.110,258.816 328.000 C 258.934 327.890,260.453 326.180,262.190 324.200 C 270.450 314.787,283.549 300.843,294.786 289.504 C 305.067 279.129,306.028 277.784,305.249 274.863 C 304.501 272.058,301.671 269.735,299.400 270.062 C 299.180 270.094,298.460 270.197,297.800 270.292 M251.062 375.131 C 250.477 375.778,250.400 377.263,250.400 387.931 L 250.400 400.000 260.000 400.000 L 269.600 400.000 269.600 388.618 L 269.600 377.236 268.300 377.038 C 267.585 376.929,266.010 376.736,264.800 376.609 C 263.590 376.482,261.700 376.203,260.600 375.987 C 250.949 374.098,251.918 374.185,251.062 375.131 " stroke="none" fill="#fbfbfb" fill-rule="evenodd"></path><path id="path4" d="M163.800 21.070 C 147.274 23.542,141.188 34.238,145.177 53.800 C 146.435 59.971,146.594 59.600,142.700 59.601 C 140.885 59.602,136.579 59.396,133.132 59.145 C 123.714 58.457,117.608 59.464,116.106 61.952 C 115.618 62.760,114.916 66.697,114.708 69.800 C 114.574 71.782,110.000 72.605,110.000 70.646 C 110.000 69.911,108.452 67.997,107.871 68.013 C 107.604 68.020,107.687 68.244,108.061 68.528 C 108.424 68.805,109.069 69.654,109.493 70.416 C 110.214 71.709,110.412 71.808,112.520 71.920 C 115.119 72.057,114.850 72.541,115.585 66.410 C 116.230 61.018,116.930 60.411,123.444 59.593 C 126.599 59.197,128.546 59.185,132.307 59.542 C 134.957 59.794,139.235 60.000,141.812 60.000 L 146.499 60.000 146.264 57.900 C 146.134 56.745,145.843 54.900,145.618 53.800 C 142.021 36.269,146.164 26.540,158.800 22.843 C 159.790 22.554,161.013 22.155,161.519 21.958 C 165.669 20.340,172.380 22.325,176.406 26.362 C 182.157 32.129,182.826 35.241,179.629 41.358 C 176.471 47.400,175.526 54.466,177.337 58.500 L 178.011 60.000 187.859 60.000 C 201.256 60.000,202.395 60.444,202.399 65.667 C 202.401 69.022,202.540 69.212,204.943 69.128 L 207.000 69.056 205.141 68.908 C 203.035 68.740,202.815 68.377,202.805 65.062 C 202.791 60.030,201.226 59.440,188.153 59.534 L 178.106 59.606 177.553 57.703 C 176.837 55.240,176.838 49.026,177.554 47.200 C 177.856 46.430,178.923 44.007,179.926 41.816 C 183.011 35.073,182.627 32.417,177.825 27.270 C 173.344 22.468,168.570 20.357,163.800 21.070 M159.240 30.748 C 158.694 30.901,159.643 31.025,161.440 31.036 C 163.353 31.047,164.206 30.941,163.600 30.767 C 162.345 30.406,160.490 30.398,159.240 30.748 M167.200 32.405 C 168.410 33.060,170.193 34.452,171.163 35.498 C 172.132 36.544,172.726 37.024,172.484 36.566 C 171.840 35.349,169.083 32.961,167.234 32.017 C 164.755 30.753,164.727 31.067,167.200 32.405 M155.151 32.520 C 154.285 33.179,152.799 35.649,152.817 36.400 C 152.825 36.730,153.104 36.370,153.438 35.600 C 153.771 34.830,154.518 33.705,155.097 33.100 C 156.209 31.938,156.232 31.697,155.151 32.520 M172.914 39.400 C 172.917 40.500,172.995 40.903,173.087 40.295 C 173.179 39.686,173.177 38.786,173.082 38.295 C 172.987 37.803,172.911 38.300,172.914 39.400 M152.816 39.120 C 152.788 40.025,153.882 41.758,155.264 42.999 L 156.600 44.198 155.321 42.799 C 154.618 42.030,153.770 40.770,153.437 40.000 C 153.104 39.230,152.824 38.834,152.816 39.120 M171.803 43.447 C 171.383 44.226,170.401 45.201,169.620 45.614 C 168.839 46.027,168.442 46.373,168.738 46.382 C 170.000 46.424,173.381 42.847,172.712 42.179 C 172.631 42.098,172.222 42.669,171.803 43.447 M161.000 46.000 C 161.440 46.189,162.160 46.338,162.600 46.332 C 163.243 46.323,163.204 46.257,162.400 46.000 C 161.032 45.562,159.981 45.562,161.000 46.000 M165.105 46.683 C 165.602 46.779,166.322 46.775,166.705 46.675 C 167.087 46.575,166.680 46.496,165.800 46.501 C 164.920 46.505,164.607 46.587,165.105 46.683 M73.800 65.214 C 73.278 65.448,73.763 65.488,75.200 65.332 C 76.410 65.200,77.475 65.026,77.567 64.946 C 77.921 64.636,74.557 64.875,73.800 65.214 M78.833 64.946 C 78.925 65.026,80.440 65.191,82.200 65.312 C 84.094 65.441,84.910 65.401,84.200 65.213 C 82.997 64.894,78.520 64.671,78.833 64.946 M70.441 66.816 C 68.123 68.495,64.914 73.848,65.734 74.667 C 65.851 74.785,66.137 74.176,66.369 73.316 C 66.949 71.160,69.523 67.626,71.135 66.771 C 72.683 65.950,73.099 65.600,72.527 65.600 C 72.303 65.600,71.364 66.147,70.441 66.816 M86.400 66.000 C 86.950 66.176,87.850 66.320,88.400 66.320 L 89.400 66.320 88.400 66.000 C 87.850 65.824,86.950 65.680,86.400 65.680 L 85.400 65.680 86.400 66.000 M90.600 66.786 C 91.357 67.125,94.721 67.364,94.367 67.054 C 94.275 66.974,93.210 66.800,92.000 66.668 C 90.563 66.512,90.078 66.552,90.600 66.786 M243.905 67.083 C 244.402 67.179,245.122 67.175,245.505 67.075 C 245.887 66.975,245.480 66.896,244.600 66.901 C 243.720 66.905,243.407 66.987,243.905 67.083 M97.200 67.602 C 99.418 67.923,107.476 68.126,107.167 67.853 C 107.075 67.772,104.300 67.611,101.000 67.495 C 97.320 67.365,95.851 67.407,97.200 67.602 M234.500 67.487 C 235.105 67.578,236.095 67.578,236.700 67.487 C 237.305 67.395,236.810 67.320,235.600 67.320 C 234.390 67.320,233.895 67.395,234.500 67.487 M230.105 67.887 C 230.714 67.979,231.614 67.977,232.105 67.882 C 232.597 67.787,232.100 67.711,231.000 67.714 C 229.900 67.717,229.497 67.795,230.105 67.887 M220.307 68.290 C 221.026 68.379,222.106 68.377,222.707 68.286 C 223.308 68.195,222.720 68.122,221.400 68.124 C 220.080 68.126,219.588 68.201,220.307 68.290 M214.707 68.690 C 215.426 68.779,216.506 68.777,217.107 68.686 C 217.708 68.595,217.120 68.522,215.800 68.524 C 214.480 68.526,213.988 68.601,214.707 68.690 M252.109 76.800 C 252.109 77.790,252.187 78.195,252.282 77.700 C 252.378 77.205,252.378 76.395,252.282 75.900 C 252.187 75.405,252.109 75.810,252.109 76.800 M65.072 77.004 C 64.927 77.882,64.830 79.320,64.855 80.200 C 64.889 81.367,64.998 81.048,65.257 79.021 C 65.645 75.997,65.500 74.414,65.072 77.004 M64.250 90.523 C 64.064 94.440,64.003 97.736,64.113 97.847 C 64.381 98.114,64.913 87.041,64.730 85.000 C 64.652 84.120,64.435 86.605,64.250 90.523 M252.557 91.600 C 252.557 94.570,252.620 95.785,252.697 94.300 C 252.774 92.815,252.774 90.385,252.697 88.900 C 252.620 87.415,252.557 88.630,252.557 91.600 M222.691 94.289 C 223.401 94.377,224.661 94.379,225.491 94.292 C 226.321 94.205,225.740 94.133,224.200 94.131 C 222.660 94.129,221.981 94.200,222.691 94.289 M206.691 95.089 C 207.401 95.177,208.661 95.179,209.491 95.092 C 210.321 95.005,209.740 94.933,208.200 94.931 C 206.660 94.929,205.981 95.000,206.691 95.089 M190.311 95.893 C 191.251 95.978,192.691 95.977,193.511 95.891 C 194.330 95.805,193.560 95.736,191.800 95.737 C 190.040 95.739,189.370 95.809,190.311 95.893 M166.118 96.698 C 167.833 96.773,170.533 96.772,172.118 96.697 C 173.703 96.621,172.300 96.559,169.000 96.560 C 165.700 96.561,164.403 96.622,166.118 96.698 M147.305 97.087 C 147.914 97.179,148.814 97.177,149.305 97.082 C 149.797 96.987,149.300 96.911,148.200 96.914 C 147.100 96.917,146.697 96.995,147.305 97.087 M107.100 97.489 C 107.815 97.578,108.985 97.578,109.700 97.489 C 110.415 97.401,109.830 97.328,108.400 97.328 C 106.970 97.328,106.385 97.401,107.100 97.489 M133.315 97.496 C 134.588 97.576,136.568 97.575,137.715 97.494 C 138.862 97.414,137.820 97.349,135.400 97.350 C 132.980 97.351,132.042 97.416,133.315 97.496 M118.707 97.890 C 119.426 97.979,120.506 97.977,121.107 97.886 C 121.708 97.795,121.120 97.722,119.800 97.724 C 118.480 97.726,117.988 97.801,118.707 97.890 M63.425 107.217 C 63.251 111.296,63.188 114.986,63.284 115.417 C 63.380 115.847,63.601 112.863,63.775 108.783 C 63.949 104.704,64.012 101.014,63.916 100.583 C 63.820 100.153,63.599 103.137,63.425 107.217 M236.957 114.800 C 236.957 117.770,237.020 118.985,237.097 117.500 C 237.174 116.015,237.174 113.585,237.097 112.100 C 237.020 110.615,236.957 111.830,236.957 114.800 M252.924 112.600 C 252.926 113.920,253.001 114.412,253.090 113.693 C 253.179 112.974,253.177 111.894,253.086 111.293 C 252.995 110.692,252.922 111.280,252.924 112.600 M83.731 116.200 C 83.733 117.740,83.805 118.321,83.892 117.491 C 83.979 116.661,83.977 115.401,83.889 114.691 C 83.800 113.981,83.729 114.660,83.731 116.200 M62.654 128.521 C 62.464 133.978,62.399 138.533,62.510 138.643 C 62.778 138.912,63.304 124.048,63.134 121.000 C 63.060 119.680,62.844 123.064,62.654 128.521 M106.145 119.492 C 105.894 119.661,110.934 119.863,117.345 119.941 C 123.755 120.018,128.910 119.997,128.800 119.893 C 128.445 119.560,106.616 119.173,106.145 119.492 M148.800 120.421 C 152.870 120.573,159.080 120.688,162.600 120.676 L 169.000 120.654 161.200 120.380 C 156.910 120.230,150.700 120.115,147.400 120.125 L 141.400 120.144 148.800 120.421 M185.233 120.950 C 185.325 121.033,192.330 121.187,200.800 121.293 C 210.519 121.415,213.397 121.379,208.600 121.196 C 200.182 120.875,184.973 120.715,185.233 120.950 M226.657 121.997 C 227.129 122.187,227.804 122.756,228.157 123.260 C 228.511 123.765,228.800 123.989,228.800 123.759 C 228.800 123.143,227.041 121.596,226.374 121.625 C 226.058 121.639,226.186 121.806,226.657 121.997 M104.888 125.413 C 105.486 126.043,106.047 126.477,106.135 126.379 C 106.223 126.280,105.733 125.765,105.047 125.234 L 103.800 124.269 104.888 125.413 M125.800 126.821 C 130.860 126.972,138.150 127.086,142.000 127.074 L 149.000 127.054 140.000 126.778 C 135.050 126.627,127.760 126.513,123.800 126.525 L 116.600 126.547 125.800 126.821 M253.367 133.800 C 253.367 137.980,253.426 139.636,253.498 137.479 C 253.571 135.323,253.570 131.903,253.498 129.879 C 253.425 127.856,253.366 129.620,253.367 133.800 M171.600 127.621 C 175.670 127.773,181.700 127.888,185.000 127.877 L 191.000 127.856 183.600 127.579 C 179.530 127.427,173.500 127.312,170.200 127.323 L 164.200 127.344 171.600 127.621 M226.800 128.013 C 226.419 128.267,221.902 128.350,214.400 128.240 L 202.600 128.067 214.259 128.468 C 224.525 128.821,226.054 128.795,227.059 128.250 C 227.687 127.910,228.020 127.628,227.800 127.622 C 227.580 127.617,227.130 127.792,226.800 128.013 M82.944 133.600 C 82.944 135.690,83.012 136.545,83.094 135.500 C 83.176 134.455,83.176 132.745,83.094 131.700 C 83.012 130.655,82.944 131.510,82.944 133.600 M237.328 132.400 C 237.328 133.830,237.401 134.415,237.489 133.700 C 237.578 132.985,237.578 131.815,237.489 131.100 C 237.401 130.385,237.328 130.970,237.328 132.400 M61.815 159.281 C 61.661 168.586,61.595 177.820,61.668 179.800 C 61.740 181.780,61.957 174.257,62.148 163.081 C 62.339 151.906,62.405 142.672,62.295 142.562 C 62.185 142.452,61.969 149.975,61.815 159.281 M82.501 144.200 C 82.505 145.080,82.587 145.393,82.683 144.895 C 82.779 144.398,82.775 143.678,82.675 143.295 C 82.575 142.913,82.496 143.320,82.501 144.200 M237.769 159.000 C 237.770 163.620,237.828 165.455,237.899 163.078 C 237.970 160.701,237.969 156.921,237.898 154.678 C 237.827 152.435,237.769 154.380,237.769 159.000 M82.155 158.200 C 82.156 161.060,82.220 162.178,82.297 160.683 C 82.374 159.189,82.374 156.849,82.296 155.483 C 82.218 154.118,82.155 155.340,82.155 158.200 M111.800 158.789 C 110.920 158.940,112.900 158.980,116.200 158.878 C 119.500 158.775,122.275 158.625,122.367 158.545 C 122.659 158.291,113.465 158.502,111.800 158.789 M132.833 158.545 C 132.925 158.625,136.420 158.781,140.600 158.892 C 145.441 159.020,146.966 158.982,144.800 158.787 C 141.265 158.467,132.542 158.291,132.833 158.545 M106.880 160.011 C 103.742 162.935,106.500 166.584,111.400 165.991 L 114.200 165.653 111.221 165.779 C 106.124 165.994,103.902 161.998,107.910 159.824 C 108.557 159.472,108.746 159.226,108.375 159.216 C 108.032 159.207,107.359 159.565,106.880 160.011 M158.000 159.614 C 159.430 159.775,161.500 159.901,162.600 159.894 L 164.600 159.882 162.200 159.585 C 160.880 159.421,158.810 159.295,157.600 159.304 L 155.400 159.322 158.000 159.614 M216.700 159.889 C 217.415 159.978,218.585 159.978,219.300 159.889 C 220.015 159.801,219.430 159.728,218.000 159.728 C 216.570 159.728,215.985 159.801,216.700 159.889 M253.742 163.000 C 253.741 164.980,253.808 165.840,253.892 164.912 C 253.976 163.984,253.977 162.364,253.895 161.312 C 253.812 160.260,253.743 161.020,253.742 163.000 M173.134 160.474 C 175.408 160.625,184.318 160.605,192.934 160.431 L 208.600 160.113 188.800 160.156 C 177.447 160.181,170.764 160.317,173.134 160.474 M221.200 165.532 C 220.294 166.415,220.283 166.464,221.078 166.051 C 221.560 165.801,222.073 165.405,222.218 165.171 C 222.710 164.375,222.202 164.555,221.200 165.532 M124.918 165.498 C 126.633 165.573,129.333 165.572,130.918 165.497 C 132.503 165.421,131.100 165.359,127.800 165.360 C 124.500 165.361,123.203 165.422,124.918 165.498 M144.800 165.995 C 148.000 166.315,155.445 166.500,155.167 166.251 C 155.075 166.169,152.030 166.010,148.400 165.898 C 144.341 165.773,142.955 165.810,144.800 165.995 M162.200 166.795 C 164.740 167.132,169.448 167.304,169.167 167.050 C 169.075 166.967,166.930 166.805,164.400 166.689 C 161.228 166.543,160.545 166.576,162.200 166.795 M212.000 166.800 L 207.800 167.043 211.600 167.082 C 213.690 167.103,216.390 166.984,217.600 166.817 C 220.405 166.429,218.501 166.423,212.000 166.800 M182.100 167.487 C 182.705 167.578,183.695 167.578,184.300 167.487 C 184.905 167.395,184.410 167.320,183.200 167.320 C 181.990 167.320,181.495 167.395,182.100 167.487 M81.720 174.800 C 81.720 176.010,81.795 176.505,81.887 175.900 C 81.978 175.295,81.978 174.305,81.887 173.700 C 81.795 173.095,81.720 173.590,81.720 174.800 M238.146 187.000 C 238.147 189.200,238.214 190.049,238.295 188.887 C 238.376 187.724,238.376 185.924,238.293 184.887 C 238.211 183.849,238.145 184.800,238.146 187.000 M254.175 194.400 C 254.175 200.230,254.231 202.615,254.299 199.700 C 254.367 196.785,254.367 192.015,254.299 189.100 C 254.231 186.185,254.175 188.570,254.175 194.400 M106.147 194.689 C 105.897 194.860,108.141 195.053,111.132 195.119 C 114.123 195.184,116.487 195.161,116.385 195.068 C 116.020 194.734,106.590 194.385,106.147 194.689 M214.800 194.823 C 212.796 195.008,213.542 195.043,217.047 194.931 L 222.293 194.762 223.601 195.862 C 224.670 196.761,224.811 196.806,224.375 196.109 C 223.301 194.390,221.757 194.182,214.800 194.823 M128.200 195.622 C 133.658 195.923,151.454 196.104,151.167 195.856 C 151.075 195.776,144.700 195.626,137.000 195.523 C 129.264 195.419,125.327 195.463,128.200 195.622 M190.800 195.600 L 184.200 195.830 190.400 195.862 C 193.810 195.880,198.670 195.770,201.200 195.617 L 205.800 195.338 201.600 195.354 C 199.290 195.363,194.430 195.473,190.800 195.600 M61.362 204.200 C 61.362 207.720,61.424 209.106,61.498 207.281 C 61.572 205.456,61.572 202.576,61.497 200.881 C 61.422 199.186,61.361 200.680,61.362 204.200 M104.032 199.471 C 103.995 200.009,105.882 201.601,106.554 201.599 C 106.799 201.598,106.435 201.252,105.744 200.831 C 105.054 200.410,104.393 199.826,104.276 199.533 C 104.141 199.194,104.052 199.172,104.032 199.471 M113.600 202.022 C 115.470 202.186,118.440 202.309,120.200 202.294 L 123.400 202.268 119.400 201.981 C 117.200 201.823,114.230 201.701,112.800 201.709 C 110.267 201.723,110.288 201.732,113.600 202.022 M208.600 202.000 L 205.400 202.253 208.200 202.284 C 209.740 202.301,212.620 202.183,214.600 202.021 L 218.200 201.727 215.000 201.737 C 213.240 201.742,210.360 201.861,208.600 202.000 M137.600 202.850 C 145.089 203.172,180.807 203.172,190.400 202.849 C 194.470 202.712,182.950 202.600,164.800 202.600 C 146.650 202.600,134.410 202.712,137.600 202.850 M238.494 223.851 C 238.423 234.220,238.280 237.590,237.900 237.868 C 237.625 238.070,236.410 238.567,235.200 238.974 C 223.221 242.995,212.216 253.502,203.432 269.300 L 201.931 272.000 196.466 272.055 C 193.460 272.085,184.520 272.245,176.600 272.409 C 162.807 272.697,163.022 272.703,181.700 272.562 C 194.415 272.467,201.200 272.553,201.200 272.812 C 201.200 273.030,200.490 274.646,199.622 276.404 C 198.754 278.162,198.122 279.600,198.218 279.600 C 198.315 279.600,197.924 280.815,197.350 282.300 C 194.459 289.782,193.456 295.305,193.426 303.917 C 193.397 312.047,193.649 311.350,190.600 311.730 C 189.888 311.819,190.228 311.905,191.436 311.940 L 193.472 312.000 193.942 314.100 C 194.200 315.255,194.459 316.650,194.516 317.200 C 194.573 317.750,194.751 318.408,194.911 318.663 C 195.070 318.917,195.758 320.772,196.438 322.785 C 199.512 331.883,207.813 345.050,212.797 348.735 C 214.232 349.796,214.315 350.284,213.100 350.518 C 212.365 350.659,212.412 350.701,213.356 350.746 C 214.131 350.782,215.315 351.501,216.956 352.932 C 219.480 355.134,225.587 359.387,227.936 360.580 C 229.204 361.223,229.314 361.221,230.078 360.529 C 231.242 359.476,233.753 359.646,236.600 360.970 C 240.599 362.830,241.262 363.097,245.044 364.371 C 249.428 365.847,255.782 367.548,258.800 368.053 C 271.207 370.130,280.255 370.115,288.100 368.004 C 288.925 367.782,290.185 367.444,290.900 367.254 C 296.246 365.830,306.691 357.986,311.079 352.097 C 311.693 351.274,312.302 350.510,312.431 350.400 C 312.803 350.085,317.311 343.276,319.076 340.362 C 321.769 335.919,327.048 324.926,328.210 321.345 C 328.556 320.275,329.005 319.040,329.206 318.600 C 329.777 317.353,331.062 312.849,331.602 310.200 C 331.872 308.880,332.263 307.222,332.472 306.515 C 333.142 304.251,332.954 293.706,332.195 291.000 C 331.825 289.680,331.384 287.970,331.215 287.200 C 327.974 272.445,311.978 255.673,291.930 246.009 C 287.427 243.839,286.260 242.741,286.476 240.877 C 286.605 239.755,286.262 239.557,282.200 238.407 C 273.879 236.052,269.771 235.393,260.200 234.879 L 255.000 234.600 254.765 232.400 L 254.530 230.200 254.465 232.259 L 254.400 234.318 251.867 234.759 C 250.474 235.002,248.899 235.200,248.367 235.200 C 247.321 235.201,242.662 236.132,240.403 236.792 C 239.634 237.016,238.961 237.200,238.908 237.200 C 238.854 237.200,238.761 231.125,238.700 223.700 L 238.589 210.200 238.494 223.851 M61.649 232.233 C 61.676 239.475,61.833 248.550,61.998 252.400 C 62.171 256.434,62.214 250.926,62.099 239.400 C 61.990 228.400,61.833 219.325,61.750 219.233 C 61.668 219.142,61.622 224.992,61.649 232.233 M81.748 234.400 C 81.748 236.710,81.814 237.655,81.895 236.500 C 81.976 235.345,81.976 233.455,81.895 232.300 C 81.814 231.145,81.748 232.090,81.748 234.400 M184.200 233.200 L 175.000 233.423 183.400 233.456 C 188.020 233.475,196.210 233.368,201.600 233.220 L 211.400 232.950 202.400 232.964 C 197.450 232.971,189.260 233.078,184.200 233.200 M219.233 232.900 C 219.325 232.955,219.940 233.450,220.600 234.000 L 221.800 235.000 220.830 233.900 C 220.297 233.295,219.682 232.800,219.464 232.800 C 219.245 232.800,219.142 232.845,219.233 232.900 M119.600 234.000 L 108.600 234.219 118.400 234.253 C 123.790 234.272,134.320 234.167,141.800 234.020 L 155.400 233.754 143.000 233.767 C 136.180 233.775,125.650 233.879,119.600 234.000 M105.867 236.267 C 105.251 236.882,105.661 238.822,106.629 239.878 L 107.658 241.000 106.779 239.734 C 106.177 238.867,105.956 238.078,106.080 237.234 C 106.276 235.902,106.268 235.866,105.867 236.267 M214.800 239.600 L 210.200 239.840 214.876 239.920 C 217.652 239.968,219.653 239.837,219.800 239.600 C 219.936 239.380,219.902 239.236,219.724 239.280 C 219.546 239.324,217.330 239.468,214.800 239.600 M152.000 240.413 C 147.050 240.543,153.080 240.570,165.400 240.472 C 177.720 240.375,187.875 240.229,187.967 240.147 C 188.200 239.941,162.862 240.128,152.000 240.413 M112.078 241.098 C 114.431 241.169,118.391 241.169,120.878 241.099 C 123.365 241.029,121.440 240.971,116.600 240.970 C 111.760 240.970,109.725 241.028,112.078 241.098 M82.150 251.800 C 82.151 254.220,82.216 255.158,82.296 253.885 C 82.376 252.612,82.375 250.632,82.294 249.485 C 82.214 248.338,82.149 249.380,82.150 251.800 M62.520 268.000 C 62.511 270.970,62.628 276.100,62.781 279.400 L 63.058 285.400 63.082 279.400 C 63.095 276.100,62.978 270.970,62.821 268.000 L 62.537 262.600 62.520 268.000 M82.501 266.600 C 82.505 267.480,82.587 267.793,82.683 267.295 C 82.779 266.798,82.775 266.078,82.675 265.695 C 82.575 265.313,82.496 265.720,82.501 266.600 M303.117 270.676 C 305.813 272.686,306.615 277.033,304.772 279.658 C 304.254 280.396,298.711 286.220,292.454 292.600 C 280.107 305.190,272.578 313.255,260.137 327.221 C 250.306 338.257,248.881 339.270,244.879 338.071 C 240.729 336.828,231.058 322.219,224.751 307.667 C 222.530 302.542,225.163 297.605,230.120 297.601 C 233.415 297.599,235.302 299.142,237.207 303.400 C 240.801 311.431,246.489 321.600,247.386 321.600 C 247.476 321.600,249.033 319.935,250.845 317.900 C 268.036 298.596,292.545 272.988,296.000 270.721 C 298.156 269.307,301.253 269.287,303.117 270.676 M114.800 273.200 L 106.200 273.424 113.800 273.459 C 117.980 273.477,126.350 273.371,132.400 273.221 L 143.400 272.950 133.400 272.963 C 127.900 272.970,119.530 273.077,114.800 273.200 M104.111 274.100 C 103.380 275.045,103.054 275.895,103.689 275.200 C 103.990 274.870,104.489 274.375,104.798 274.100 C 105.109 273.824,105.167 273.600,104.929 273.600 C 104.692 273.600,104.324 273.825,104.111 274.100 M82.931 277.400 C 82.933 278.940,83.005 279.521,83.092 278.691 C 83.179 277.861,83.177 276.601,83.089 275.891 C 83.000 275.181,82.929 275.860,82.931 277.400 M152.200 279.616 C 146.920 279.747,152.860 279.774,165.400 279.676 C 177.940 279.578,188.275 279.431,188.367 279.349 C 188.596 279.144,163.921 279.326,152.200 279.616 M109.700 280.299 C 112.285 280.368,116.515 280.368,119.100 280.299 C 121.685 280.229,119.570 280.172,114.400 280.172 C 109.230 280.172,107.115 280.229,109.700 280.299 M63.304 286.586 C 63.416 287.450,65.743 289.205,66.759 289.191 C 67.112 289.186,66.674 288.853,65.787 288.450 C 64.900 288.047,63.956 287.286,63.689 286.759 C 63.295 285.981,63.222 285.948,63.304 286.586 M83.734 294.400 C 83.734 296.050,83.805 296.725,83.891 295.900 C 83.978 295.075,83.978 293.725,83.891 292.900 C 83.805 292.075,83.734 292.750,83.734 294.400 M67.324 297.400 C 67.326 298.720,67.401 299.212,67.490 298.493 C 67.579 297.774,67.577 296.694,67.486 296.093 C 67.395 295.492,67.322 296.080,67.324 297.400 M67.724 303.000 C 67.726 304.320,67.801 304.812,67.890 304.093 C 67.979 303.374,67.977 302.294,67.886 301.693 C 67.795 301.092,67.722 301.680,67.724 303.000 M84.514 310.200 C 84.517 311.300,84.595 311.703,84.687 311.095 C 84.779 310.486,84.777 309.586,84.682 309.095 C 84.587 308.603,84.511 309.100,84.514 310.200 M114.500 311.076 C 114.885 311.176,115.515 311.176,115.900 311.076 C 116.285 310.975,115.970 310.893,115.200 310.893 C 114.430 310.893,114.115 310.975,114.500 311.076 M111.798 312.002 C 110.775 313.132,111.210 313.237,112.286 312.120 C 112.773 311.614,113.026 311.200,112.848 311.200 C 112.670 311.200,112.197 311.561,111.798 312.002 M139.600 311.603 C 148.687 311.919,166.628 312.085,166.367 311.850 C 166.275 311.768,158.370 311.614,148.800 311.509 C 138.314 311.394,134.658 311.431,139.600 311.603 M68.128 314.000 C 68.128 315.430,68.201 316.015,68.289 315.300 C 68.378 314.585,68.378 313.415,68.289 312.700 C 68.201 311.985,68.128 312.570,68.128 314.000 M68.524 319.400 C 68.526 320.720,68.601 321.212,68.690 320.493 C 68.779 319.774,68.777 318.694,68.686 318.093 C 68.595 317.492,68.522 318.080,68.524 319.400 M114.800 318.048 C 116.503 318.325,132.472 318.452,131.200 318.178 C 130.870 318.108,126.640 317.983,121.800 317.903 C 116.960 317.822,113.810 317.887,114.800 318.048 M157.400 318.819 C 172.050 319.176,189.281 319.199,191.799 318.865 C 192.899 318.719,183.089 318.588,169.999 318.573 C 151.437 318.552,148.664 318.606,157.400 318.819 M85.320 322.400 C 85.320 323.610,85.395 324.105,85.487 323.500 C 85.578 322.895,85.578 321.905,85.487 321.300 C 85.395 320.695,85.320 321.190,85.320 322.400 M68.909 330.000 C 68.909 330.990,68.987 331.395,69.082 330.900 C 69.178 330.405,69.178 329.595,69.082 329.100 C 68.987 328.605,68.909 329.010,68.909 330.000 M69.309 334.000 C 69.309 334.990,69.387 335.395,69.482 334.900 C 69.578 334.405,69.578 333.595,69.482 333.100 C 69.387 332.605,69.309 333.010,69.309 334.000 M86.124 334.600 C 86.126 335.920,86.201 336.412,86.290 335.693 C 86.379 334.974,86.377 333.894,86.286 333.293 C 86.195 332.692,86.122 333.280,86.124 334.600 M69.714 341.800 C 69.717 342.900,69.795 343.303,69.887 342.695 C 69.979 342.086,69.977 341.186,69.882 340.695 C 69.787 340.203,69.711 340.700,69.714 341.800 M70.109 345.600 C 70.109 346.590,70.187 346.995,70.282 346.500 C 70.378 346.005,70.378 345.195,70.282 344.700 C 70.187 344.205,70.109 344.610,70.109 345.600 M127.100 347.089 C 127.815 347.178,128.985 347.178,129.700 347.089 C 130.415 347.001,129.830 346.928,128.400 346.928 C 126.970 346.928,126.385 347.001,127.100 347.089 M153.500 347.082 C 153.995 347.178,154.805 347.178,155.300 347.082 C 155.795 346.987,155.390 346.909,154.400 346.909 C 153.410 346.909,153.005 346.987,153.500 347.082 M112.300 347.489 C 113.015 347.578,114.185 347.578,114.900 347.489 C 115.615 347.401,115.030 347.328,113.600 347.328 C 112.170 347.328,111.585 347.401,112.300 347.489 M163.700 347.491 C 164.525 347.578,165.875 347.578,166.700 347.491 C 167.525 347.405,166.850 347.334,165.200 347.334 C 163.550 347.334,162.875 347.405,163.700 347.491 M94.900 348.287 C 95.505 348.378,96.495 348.378,97.100 348.287 C 97.705 348.195,97.210 348.120,96.000 348.120 C 94.790 348.120,94.295 348.195,94.900 348.287 M175.105 348.283 C 175.602 348.379,176.322 348.375,176.705 348.275 C 177.087 348.175,176.680 348.096,175.800 348.101 C 174.920 348.105,174.607 348.187,175.105 348.283 M184.300 349.082 C 184.795 349.178,185.605 349.178,186.100 349.082 C 186.595 348.987,186.190 348.909,185.200 348.909 C 184.210 348.909,183.805 348.987,184.300 349.082 M193.505 349.883 C 194.002 349.979,194.722 349.975,195.105 349.875 C 195.487 349.775,195.080 349.696,194.200 349.701 C 193.320 349.705,193.007 349.787,193.505 349.883 M204.500 350.687 C 205.105 350.778,206.095 350.778,206.700 350.687 C 207.305 350.595,206.810 350.520,205.600 350.520 C 204.390 350.520,203.895 350.595,204.500 350.687 M70.509 353.600 C 70.509 354.590,70.587 354.995,70.682 354.500 C 70.778 354.005,70.778 353.195,70.682 352.700 C 70.587 352.205,70.509 352.610,70.509 353.600 M70.909 357.600 C 70.909 358.590,70.987 358.995,71.082 358.500 C 71.178 358.005,71.178 357.195,71.082 356.700 C 70.987 356.205,70.909 356.610,70.909 357.600 M71.314 365.400 C 71.317 366.500,71.395 366.903,71.487 366.295 C 71.579 365.686,71.577 364.786,71.482 364.295 C 71.387 363.803,71.311 364.300,71.314 365.400 M112.713 373.095 C 113.876 373.176,115.676 373.176,116.713 373.093 C 117.751 373.011,116.800 372.945,114.600 372.946 C 112.400 372.947,111.551 373.014,112.713 373.095 M156.707 373.090 C 157.426 373.179,158.506 373.177,159.107 373.086 C 159.708 372.995,159.120 372.922,157.800 372.924 C 156.480 372.926,155.988 373.001,156.707 373.090 M105.111 373.493 C 106.051 373.578,107.491 373.577,108.311 373.491 C 109.130 373.405,108.360 373.336,106.600 373.337 C 104.840 373.339,104.170 373.409,105.111 373.493 M161.900 373.489 C 162.615 373.578,163.785 373.578,164.500 373.489 C 165.215 373.401,164.630 373.328,163.200 373.328 C 161.770 373.328,161.185 373.401,161.900 373.489 M91.891 373.889 C 92.601 373.977,93.861 373.979,94.691 373.892 C 95.521 373.805,94.940 373.733,93.400 373.731 C 91.860 373.729,91.181 373.800,91.891 373.889 M172.305 373.883 C 172.802 373.979,173.522 373.975,173.905 373.875 C 174.287 373.775,173.880 373.696,173.000 373.701 C 172.120 373.705,171.807 373.787,172.305 373.883 M252.600 374.000 C 253.040 374.189,253.670 374.344,254.000 374.344 C 254.378 374.344,254.304 374.217,253.800 374.000 C 253.360 373.811,252.730 373.656,252.400 373.656 C 252.022 373.656,252.096 373.783,252.600 374.000 M85.491 374.289 C 86.201 374.377,87.461 374.379,88.291 374.292 C 89.121 374.205,88.540 374.133,87.000 374.131 C 85.460 374.129,84.781 374.200,85.491 374.289 M175.505 374.283 C 176.002 374.379,176.722 374.375,177.105 374.275 C 177.487 374.175,177.080 374.096,176.200 374.101 C 175.320 374.105,175.007 374.187,175.505 374.283 M182.100 374.676 C 182.485 374.776,183.115 374.776,183.500 374.676 C 183.885 374.575,183.570 374.493,182.800 374.493 C 182.030 374.493,181.715 374.575,182.100 374.676 M256.400 374.800 C 257.768 375.238,258.819 375.238,257.800 374.800 C 257.360 374.611,256.640 374.462,256.200 374.468 C 255.557 374.477,255.596 374.543,256.400 374.800 M185.505 375.083 C 186.002 375.179,186.722 375.175,187.105 375.075 C 187.487 374.975,187.080 374.896,186.200 374.901 C 185.320 374.905,185.007 374.987,185.505 375.083 M191.300 375.476 C 191.685 375.576,192.315 375.576,192.700 375.476 C 193.085 375.375,192.770 375.293,192.000 375.293 C 191.230 375.293,190.915 375.375,191.300 375.476 M260.800 375.600 C 261.350 375.776,262.160 375.920,262.600 375.920 C 263.233 375.920,263.192 375.854,262.400 375.600 C 261.850 375.424,261.040 375.280,260.600 375.280 C 259.967 375.280,260.008 375.346,260.800 375.600 M194.305 375.883 C 194.802 375.979,195.522 375.975,195.905 375.875 C 196.287 375.775,195.880 375.696,195.000 375.701 C 194.120 375.705,193.807 375.787,194.305 375.883 M264.433 376.151 C 264.525 376.234,265.860 376.402,267.400 376.525 C 269.166 376.665,269.757 376.627,269.000 376.421 C 267.784 376.090,264.127 375.874,264.433 376.151 M209.305 377.087 C 209.914 377.179,210.814 377.177,211.305 377.082 C 211.797 376.987,211.300 376.911,210.200 376.914 C 209.100 376.917,208.697 376.995,209.305 377.087 M233.107 377.090 C 233.826 377.179,234.906 377.177,235.507 377.086 C 236.108 376.995,235.520 376.922,234.200 376.924 C 232.880 376.926,232.388 377.001,233.107 377.090 M215.100 377.496 C 216.475 377.574,218.725 377.574,220.100 377.496 C 221.475 377.418,220.350 377.354,217.600 377.354 C 214.850 377.354,213.725 377.418,215.100 377.496 M225.911 377.493 C 226.851 377.578,228.291 377.577,229.111 377.491 C 229.930 377.405,229.160 377.336,227.400 377.337 C 225.640 377.339,224.970 377.409,225.911 377.493 " stroke="none" fill="#a4a4a4" fill-rule="evenodd"></path></g></svg>
